<?xml version="1.0" encoding="utf-8"?>
<!-- Generator: Adobe Illustrator 18.1.0, SVG Export Plug-In . SVG Version: 6.00 Build 0)  -->
<!DOCTYPE svg PUBLIC "-//W3C//DTD SVG 1.1//EN" "http://www.w3.org/Graphics/SVG/1.1/DTD/svg11.dtd">
<svg version="1.1" id="Layer_1" xmlns="http://www.w3.org/2000/svg" xmlns:xlink="http://www.w3.org/1999/xlink" x="0px" y="0px"
	 viewBox="0 0 128.8 147.1" enable-background="new 0 0 128.8 147.1" xml:space="preserve">
<g>
	<path fill-rule="evenodd" clip-rule="evenodd" fill="#DEC6AD" d="M12.8,108c2-0.7,3.9-1.5,5.9-1.9c4.4-0.8,9.2-0.5,13.1,1.8
		c2.1,1.3,3.8,3,5.2,5c3.5,5.4,5.6,11.7,9.6,16.8c2.6,3.3,6.6,5.2,10.8,5.4c1.4,0.1,3.1-0.1,4.4-0.6c1.7-0.7,3.4-1.7,5-2.7
		c3.7-2.4,7.2-5.1,11.2-6.9c3-1.3,6.3-2,9.6-2.3c3.8-0.4,8.1-0.2,11.2,2.3c2,1.6,3.1,4,3.5,6.5c0.3,1.7,0.2,3.4,0.2,5h0.1
		c0.1-1.7,0.3-3.4,0.1-5.1c-0.4-2.6-1.5-5-3.5-6.8c-2-1.6-4.6-2.4-7.1-2.6c-3.1-0.2-6.2,0.1-9.2,0.8c-4,1-7.8,2.7-11.5,4.7
		c-2.6,1.5-4.7,3.6-7.3,5.1c-2,1.1-4.2,1.7-6.5,1.6c-2.3-0.1-4.6-0.7-6.5-1.9c-2.3-1.4-4.2-3.5-5.6-5.9c-2.8-4.5-4.8-9.5-7.7-13.9
		c-2.1-3.2-5-5.4-8.6-6.5c-3.3-1.1-6.8-1-10.2-0.3C16.6,106.2,14.7,107.2,12.8,108z"/>
	<path fill-rule="evenodd" clip-rule="evenodd" fill="#DEC6AD" d="M5.8,124.9c0.1-1.3,0.2-2.6,0.6-3.8c1.8-5.9,8.3-8.6,14-8.8
		c6.2-0.2,11.7,2.3,13.3,8.7c1.2,4.8-0.2,10.9-4.9,13.3c-2.7,1.4-6.1,2-8.9,1.4l0,0.1c2.9,0.8,6.2,0.3,9.1-1.1
		c3.7-1.7,5.6-5.5,5.9-9.5c0.6-9-5.9-14.2-14.5-13.7c-5.9,0.3-12.7,3.3-14.3,9.5C5.8,122.2,5.8,123.5,5.8,124.9z"/>
	<path fill-rule="evenodd" clip-rule="evenodd" fill="#DEC6AD" d="M37.5,113.1c0.4,2,1.1,4,1,6c-0.2,3.5-2.4,6.7-5.6,8.2
		c-2.1,0.9-5,1.1-6.9-0.2c-1.4-0.8-2.2-2.2-3.3-3.3c-1.1-1.1-2.2-2.1-3.6-2.7c-0.9-0.4-1.8-0.7-2.8-0.8c-1.8-0.2-4,0.3-5.5,1.4
		c-0.5,0.4-0.7,0.8-1,1.2l0.1,0c0.7-0.8,1.4-1.4,2.5-1.7c2.6-0.8,5.2-0.6,7.5,0.9c1.4,1,2.4,2.3,3.5,3.6c0.9,1,1.8,2,3,2.5
		c2.1,0.9,4.8,0.6,6.8-0.3c2.6-1.2,4.7-3.6,5.3-6.4c0.4-1.7,0.5-3.6,0.1-5.4L37.5,113.1z"/>
	<path fill-rule="evenodd" clip-rule="evenodd" fill="#DEC6AD" d="M51.7,133.3c0.7,0.3,1.4,0.5,2.1,0.7c1.6,0.2,3.5-0.2,4.8-1.4
		c1.2-1.2,2.3-2.7,2.5-4.4c0.2-2-0.7-3.9-2.6-4.7c-1.6-0.6-3.1-0.1-4.6,0.3v0.1c1.5-0.2,2.9-0.5,4.4,0.1c1.5,0.7,2.2,2.4,2,4
		c-0.4,2.5-2.2,4.8-4.7,5.4C54.2,133.7,52.9,133.5,51.7,133.3z"/>
	<path fill-rule="evenodd" clip-rule="evenodd" fill="#DEC6AD" d="M52,133.4c1,0.3,2,0.6,3,0.7c4.1,0.2,8-2.3,9.4-6.1
		c2.1-5.8,0.2-12-6.3-13.1c-8.6-1.3-14.7,4.8-15.4,12.9c-0.5,6.2,2.6,12.5,8.2,15.4c7.4,3.8,14,0.7,19.1-4.5
		c2.2-2.3,3.7-3.5,6.8-3.5l0-0.1c-3.3-0.2-4.8,1.1-7.1,3.3c-5.1,4.9-11.3,8-18.5,4.2c-3.9-2.1-6.7-6-7.5-10.4
		c-1.6-8.9,4.3-18,14.3-16.6c9,1.3,8.7,14.2,1,17.5c-1.2,0.5-2.6,0.8-3.9,0.7C53.9,133.8,52.9,133.6,52,133.4z"/>
	<path fill-rule="evenodd" clip-rule="evenodd" fill="#DEC6AD" d="M63.7,128.8c1-1.4,1.8-3,3-4.2c2.5-2.5,5.8-4.4,9.3-4.9
		c3.3-0.5,6.4,0.4,9.2,2.2c9.2,5.8,8.1,18.4,21.2,19.9c5.6,0.6,11.3-1.1,16.9,0.2c1.1,0.2,2.2,0.9,3,1.8c0.4,0.5,0.7,1,1,1.6l0.1,0
		c-0.4-0.9-0.7-1.7-1.5-2.4c-4.6-3.8-13.8-1.2-19.3-1.9c-11-1.4-10.8-9.5-17-16.7c-2-2.3-5.4-4.4-8.3-5.1c-6.2-1.4-13,2-16.4,7.2
		L63.7,128.8z"/>
	<path fill-rule="evenodd" clip-rule="evenodd" fill="#DEC6AD" d="M95.8,135.5c2.7,3.1,5.8,4.6,9.9,5.2c2.3,0.4,4.7,0.3,6.9-0.6
		c3.4-1.3,5-5.3,4.6-8c-0.3-2.1-1.9-3.4-4.3-2.2c-0.4,0.2-0.8,0.5-1.1,0.9c-0.2,0.3-0.3,0.6-0.4,0.9l0.1,0c0.4-0.8,0.9-1.5,1.9-1.7
		c5.3-1.2,3.3,7.5-1.1,9.2C106.7,141.4,100,139.5,95.8,135.5z"/>
	<path fill-rule="evenodd" clip-rule="evenodd" fill="#DEC6AD" d="M46,145c-7.5-2.3-6.2-17-5.6-22.6c-2.1,7-6.2,14.3-14.1,15.1
		c7.1,2.3,11.5-4.4,13.2-10.2C38.8,133.8,35.8,144.2,46,145z"/>
	<path fill-rule="evenodd" clip-rule="evenodd" fill="#DEC6AD" d="M10.4,135.1c0.8,0.6,1.5,1.7,2.3,2.3l3,1.9
		c-4.4-2.7-4.3-7.4-2.6-10.7C9,129.2,9,133.2,10.4,135.1z"/>
	<path fill-rule="evenodd" clip-rule="evenodd" fill="#DEC6AD" d="M9.9,122.9c1.3-7.8,8.2-4.9,9.1-2.9c1.8-0.9,2.9,0,3.4,0.5
		c0.8,0.9,0.5,2.6,1.3,4.4c-0.3-0.4-0.7-0.8-1-1.1c-1.1-1.1-2.2-2.1-3.6-2.7c-0.9-0.4-1.8-0.7-2.8-0.8c-1.8-0.2-4,0.3-5.5,1.4
		C10.4,122.2,10.1,122.5,9.9,122.9z"/>
	<path fill-rule="evenodd" clip-rule="evenodd" fill="#DEC6AD" d="M20.8,131.5c1.2,0.1,2.1,1.2,2,2.4c-0.1,1.2-1.2,2.1-2.4,1.9
		c-1.2-0.1-2.1-1.2-2-2.4C18.5,132.2,19.6,131.3,20.8,131.5z"/>
	<path fill-rule="evenodd" clip-rule="evenodd" fill="#DEC6AD" d="M23.7,125.2c-1.9-3.8,0.6-8.9,8.1-6c-6.3-0.5-9.8,7.7-2.3,8.9
		c-1.3,0-2.6-0.2-3.6-0.9C25,126.7,24.3,125.9,23.7,125.2z"/>
	<path fill-rule="evenodd" clip-rule="evenodd" fill="#DEC6AD" d="M76.7,135.2L76.7,135.2L76.7,135.2L76.7,135.2z M69.6,138.4
		c-0.4,0.4-0.8,0.8-1.2,1.1c-1-0.5-0.8-1.7-0.7-2.1c0.2-0.5,0.9-1.4,2.4-1.1c-0.1-1.6,0.8-2,5.9-1.3
		C73.2,135.1,71.8,136.3,69.6,138.4z"/>
	<path fill-rule="evenodd" clip-rule="evenodd" fill="#DEC6AD" d="M28.6,106.3c-1,0-3.4-0.8-4.4-0.8l-3.3,0.2c2.9-0.2,5.6,0.9,7,2.7
		c0.9,1.1,1.7,2.5,1.1,4.4C31.8,110,30.7,106.9,28.6,106.3z"/>
	<path fill-rule="evenodd" clip-rule="evenodd" fill="#DEC6AD" d="M36.6,112.1c-0.7-0.6-1.2-1.6-1.9-2.3l-2.6-2
		c3.9,2.9,3.5,7,2.3,9.3C37.4,116.6,37.8,113.9,36.6,112.1z"/>
	<path fill-rule="evenodd" clip-rule="evenodd" fill="#DEC6AD" d="M67.6,140.4c1.2-2.6-3.8-5.7-6.4-1.7c2.9-2.4,7.3,0.3,4.2,3.5
		C65.9,141.9,67.6,141,67.6,140.4z"/>
	<path fill-rule="evenodd" clip-rule="evenodd" fill="#DEC6AD" d="M44.7,136.9c-0.2-1-1.4-3.5-1.6-4.5l-0.3-3.5
		c0.2,3.1,1.8,5.9,4,7.1c1.4,0.8,3,1.4,4.8,0.5C49.2,139.8,45.7,139.1,44.7,136.9z"/>
	<path fill-rule="evenodd" clip-rule="evenodd" fill="#DEC6AD" d="M55.7,144.5c-0.7-0.3-2.7-0.5-3.4-0.8l-2.2-1.2
		c2,1.1,4.2,1.2,5.8,0.4c1-0.5,2-1.2,2.2-2.7C59.2,142.9,57.4,144.7,55.7,144.5z"/>
	<path fill-rule="evenodd" clip-rule="evenodd" fill="#DEC6AD" d="M76.6,115.8c-4.5-1.7-9.2,6-11,8.9c1.6-4.2,2.3-9.2-1.3-12.5
		c4.3,1.5,4,6.3,2.7,9.8C69,118.5,71.4,112.4,76.6,115.8z"/>
	<path fill-rule="evenodd" clip-rule="evenodd" fill="#DEC6AD" d="M38.5,131.7c-0.8,2.4-1.6,4.2-3.6,5.8c-5.3,4.1-12.4,4.8-18.6,1.8
		c-7.1-3.5-10.9-11.6-9.8-19.3c0.5-3.7,2.2-7.3,4.9-9.9c13.7-13.3,28.6-1,36.1,11.1c4.2,6.8,5.9,14.4,12.9,18.9
		c5,3.2,11,4.4,16.8,3.2c6.3-1.4,10.8-7.1,11.4-13.2l0.3-2.6v0c0.3-2.5-1.4-3.4-3.1-3.5c-2.5,0-3.4,1.9-3,3.2c0.2-1.7,1.7-3,3.4-2.7
		c1.1,0.2,2.1,1.1,2,2.9c-0.1,1.1-1.4,2.2-2.7,2.5c-2,0.4-2.4,2.6-0.9,4c1.1,1,0.9,2.4,0.3,3.6c-2,2.5-4.6,4.4-7.8,5
		c-5.6,1.1-11.3-0.1-16.1-3.3c-6.8-4.5-8.3-12.1-12.3-18.7c-7.7-12.6-20.6-23.7-35.7-13.4c-5.1,3.5-7.8,9.6-7.7,15.7
		c0.1,5,2,10,5.6,13.6c6.8,6.8,20.4,7.8,26.3-0.7C38,134.4,38.2,133.2,38.5,131.7z"/>
	<path fill-rule="evenodd" clip-rule="evenodd" fill="#DEC6AD" d="M80,141.8l-3.3,1.5c2.4-1.7,4-3.8,4.1-5.7
		c0.1-1.2-0.5-2.3-1.8-3.2c1.8,0.4,2.9,1.7,3,3.2C82.2,139,81.2,140.8,80,141.8z"/>
	<path fill-rule="evenodd" clip-rule="evenodd" fill="#DEC6AD" d="M113.7,130.1c1.2,0.1,2.1,1.2,2,2.4c-0.1,1.2-1.2,2.1-2.4,1.9
		c-1.2-0.1-2-1.2-1.9-2.4C111.5,130.9,112.5,130,113.7,130.1z"/>
	<path fill-rule="evenodd" clip-rule="evenodd" fill="#DEC6AD" d="M102.4,136.4c1.3-3.7,2.8-4.7,2.9-6.3c0-2.4-1.7-2.6-2.9-2.5
		c-0.2-4.1-1.5-3.4-5-3.8c0.5,0.1,1,0.5,1.4,0.8c1.1,0.9,1.2,1.2,2.1,2.4c0.6,0.8,0.8,1.8,1.2,2.7c0.2,0.7,0.4,1.2,0.5,1.9
		C102.6,133.1,102.4,134.9,102.4,136.4z"/>
	<path fill-rule="evenodd" clip-rule="evenodd" fill="#DEC6AD" d="M123.5,131.3c1.2,3.7-5.2,7.4-7.7,8.7c3.5-1.1,7.7-1.5,10.3,1.5
		c-1.1-3.6-5.1-3.5-8-2.5C121,137.4,126.1,135.6,123.5,131.3z"/>
	<path fill-rule="evenodd" clip-rule="evenodd" fill="#DEC6AD" d="M118.4,129.5c2.7,2.2-0.5,7.7-2.6,9.6
		C118.7,136.8,123.1,131.9,118.4,129.5z"/>
	<path fill-rule="evenodd" clip-rule="evenodd" fill="#DEC6AD" d="M55.2,123.6c1.2,0.1,2.1,1.2,1.9,2.4c-0.1,1.2-1.2,2.1-2.4,1.9
		c-1.2-0.1-2.1-1.2-1.9-2.4C52.9,124.3,54,123.4,55.2,123.6z"/>
	<path fill-rule="evenodd" clip-rule="evenodd" fill="#DEC6AD" d="M12.4,108.1c5.8-4.5,11.8-8.8,16.8-14.2c2.3-2.6,4-5.8,5.4-8.9
		c1.4-3.3,2.6-6.8,2.9-10.4c0.5-5.3,0.2-10.7-0.8-16.1c-0.5-2.4-1.6-4.7-2.9-6.8c-2.4-3.9-6-7.2-10.6-8.2c-3.8-0.7-8,0.3-10.5,3.2
		c-1.8,2-2.6,4.7-1.9,7.3c0.6,2.3,2,4.4,4.1,5.5c2,1.1,4.3,0.8,5.9-0.7c1-0.9,1.5-1.9,2-3.1l-0.1,0c-0.6,1.1-1.1,2.2-2.1,3
		c-1.6,1.3-3.8,1.5-5.5,0.5c-2.4-1.4-3.9-4.1-4-6.8c-0.1-3.1,1.9-5.9,4.6-7.2c2.9-1.5,6.4-1.5,9.4-0.3c3.5,1.4,6.2,4.1,8.1,7.3
		c1.2,2.1,2.3,4.3,2.7,6.6c1,5.2,1.4,10.5,0.9,15.7c-0.3,3.5-1.4,7-2.8,10.3c-1.3,3.2-2.9,6.3-5.2,8.9C23.9,99,18,103.5,12.4,108.1z
		"/>
	<path fill-rule="evenodd" clip-rule="evenodd" fill="#DEC6AD" d="M17.9,105l8.8-6.2c5.5-4.2,12.5-8.3,15-15.3
		c1.6-4.4,0.9-9.3-2.1-12.9c-2.6-3.1-6.5-4.9-10.5-5.3c-3.4-0.3-7,0.2-10.2,1.5c-2.6,1.1-4.8,2.8-6.2,5.2c-1.1,1.8-1.7,3.9-2,6
		c-0.2,1.4-0.1,3.2,0.5,4.5c0.7,1.6,1.7,3,2.7,4.4c1.3,1.9,3.1,3.6,3.3,6c0.4,4.8-4.4,9.1-9,8.8c-1.5-0.1-3-0.7-4.1-1.8
		c-0.6-0.7-1.1-1.5-1.6-2.3l-0.1,0c0.4,0.8,0.8,1.7,1.5,2.4c1.7,1.8,4.2,2.3,6.6,1.8c3.1-0.7,6.1-3.1,7-6.2c0.5-1.7,0.5-3.5-0.4-5
		c-0.8-1.4-1.8-2.7-2.7-4c-1-1.4-1.9-2.7-2.6-4.3c-0.6-1.3-0.6-2.9-0.5-4.2c0.4-3.3,1.9-6.5,4.4-8.6c2.2-1.8,5-2.7,7.7-3.2
		c4.2-0.6,8.5-0.3,12.2,1.9c3.7,2.2,6.1,6.2,6.1,10.5c0,2.3-0.7,4.7-1.8,6.7c-3,5.6-8.9,9.2-13.6,12.9L17.9,105z"/>
	<path fill-rule="evenodd" clip-rule="evenodd" fill="#DEC6AD" d="M27.7,65.7c-1.4,0.1-2.7,0.1-4,0.4c-4.1,1-7.8,4.6-8.2,8.9
		c-0.2,2.1,0.3,4.3,1.9,5.7c1.8,1.7,4.2,1.9,6.5,1.7c2.4-0.2,4.7-1.1,7.1-1.3c2.4-0.2,4.9,0.1,7.2,0.9c4.4,1.5,8.5,6,7.5,10.9
		c-0.5,2.4-2.4,4.3-4.8,4.7c-0.6,0.1-1.2,0.1-1.7,0c-0.6-0.1-1.2-0.3-1.8-0.5l0,0.1C38.3,97.7,39,98,40,98c2.6,0.1,4.9-1.6,5.9-4
		c0.9-2.3,0.5-5.1-0.7-7.2c-2.1-3.7-6.2-5.9-10.3-6.5c-2.5-0.4-5.1,0.3-7.6,0.6c-2.2,0.3-4.4,0.7-6.6,0.6c-0.7,0-1.6-0.5-2.2-0.9
		c-1.8-1.2-2.5-3.5-2.3-5.6c0.2-2.9,2.2-5.7,4.7-7.3c0.9-0.6,2-1.1,3.1-1.4C25.1,66,26.4,65.9,27.7,65.7z"/>
	<path fill-rule="evenodd" clip-rule="evenodd" fill="#DEC6AD" d="M14.3,59c1.9,1.1,3.7,2.4,5.8,3c3.1,1,6.5,0.9,9.4-0.9
		c2-1.2,3.5-3.2,4.5-5.3c2-4.1,2.4-9.2,1.7-13.7c-0.5-3.6-2-6.9-3.4-10.3l-5.2-12.3C26,16,25,12.4,26.1,8.8c1-3.1,3.6-6.4,7.1-6.8
		c1.3-0.1,2.5,0.1,3.6,0.8c0.9,0.5,1.6,1.4,2.3,2.1l0.1-0.1c-0.7-0.8-1.4-1.7-2.3-2.2c-2.3-1.5-5.1-1.1-7.2,0.4
		c-1.5,1.1-2.7,2.6-3.5,4.3c-3,6.2,0.5,13.3,2.7,19.1c1.3,3.3,3.4,6.4,4.4,9.8C34.5,40,35.1,44,35.2,48c0.1,1.8-0.4,3.5-0.9,5.3
		c-0.9,2.9-2.5,5.7-5.1,7.4c-2.7,1.7-5.9,1.9-9,1C18.2,61.1,16.3,59.9,14.3,59z"/>
	<path fill-rule="evenodd" clip-rule="evenodd" fill="#DEC6AD" d="M16,60c2.3,1.2,4.4,2.7,7,3.3c4,1,8.1,0,11.2-2.7
		c1.5-1.3,2.7-3,3.6-4.8c1.5-3,2.6-6.3,2.6-9.8c-0.1-4.4-2.7-7.8-5.7-10.7c-3.6-3.5-8.1-6.6-10.2-11.3c-1.4-2.9-2-6.2-0.9-9.3
		c1.1-3.2,3.9-6.3,7.4-6.6c1.3-0.1,2.6,0.2,3.7,0.9c0.9,0.5,1.6,1.4,2.4,2.1l0.1,0c-0.8-0.8-1.4-1.7-2.3-2.3
		c-2.3-1.5-5.2-1.2-7.5,0.2c-2,1.3-3.5,3.3-4.3,5.5c-1.5,4.1-0.2,8.7,2.1,12.2c2.4,3.6,5.9,6.2,9,9.3c2.2,2.2,4.4,4.7,5.2,7.7
		c0.7,2.8,0.4,5.6-0.5,8.3c-1.3,3.8-3.4,7.7-7.1,9.8c-2.6,1.4-5.6,1.8-8.5,1.2C20.5,62.4,18.3,61.1,16,60z"/>
	<path fill-rule="evenodd" clip-rule="evenodd" fill="#DEC6AD" d="M29.4,65.8c-1.7,0-3.3-0.1-4.9,0.5c-2.7,0.9-5.4,3.2-5.9,6.1
		c-0.2,1.2,0,2.6,0.5,3.8c1.7,3.6,7.2,3.9,9.8,1.1c0.9-1,1.1-2,1-3.3c-1.8,2.9-6.5,3.7-8.3,1.4c-1.7-2.1-0.8-4.3,0.5-5.7
		C23.7,67.7,27,66.5,29.4,65.8z"/>
	<path fill-rule="evenodd" clip-rule="evenodd" fill="#DEC6AD" d="M24.3,66c-2.1,0.7-4.2,1.4-6.2,2.3c-4.8,2.2-7.7,11.7-3.8,15.8
		c3.7,3.9,10,3.5,8.6,10.5l0.1,0c0.6-1.8,1.5-4.1,0.6-6c-1.6-3.4-6.4-4.1-8.4-8.2c-2.3-4.6,1-11.3,5.9-13.1L24.3,66z"/>
	<path fill-rule="evenodd" clip-rule="evenodd" fill="#DEC6AD" d="M29.2,46.9c-1.1-0.8-2.2-1.6-3.4-2.1c-3.8-1.4-9-0.5-11.2,3.2
		c-1.4,2.3-1.6,5.7,0.4,7.7c1.3,1.2,3.2,2.1,4.9,1.1c0.6-0.4,0.9-0.8,1.2-1.4L21,55.2c-0.7,0.8-1.6,1.7-2.8,1.5
		c-1.5-0.2-2.8-1.1-3.5-2.5c-0.9-1.8-0.5-4.1,0.6-5.8c1.5-2.3,4.3-3.5,7-3.6c1.1,0,2.3,0.1,3.3,0.4C26.9,45.6,28.1,46.3,29.2,46.9z"
		/>
	<path fill-rule="evenodd" clip-rule="evenodd" fill="#DEC6AD" d="M16.3,60c0.8,0.4,1.5,0.8,2.4,1c2.2,0.5,4.6,0.3,6.7-0.4
		c2.7-0.9,4.7-2.8,5.9-5.4c2-3.9,2-8.8,0.3-12.8c-0.7-1.7-2-3.2-2.9-4.8c-2-3.6-3.8-7.7-2.8-11.8c0.7-2.8,3.5-5.1,6.4-4.8
		c0.9,0.1,1.8,0.4,2.6,0.9c0.6,0.4,1.1,1,1.7,1.5l0.1-0.1c-0.5-0.6-1-1.2-1.6-1.7c-1.5-1.1-3.5-1.4-5.3-0.8
		c-2.3,0.8-4.3,3.2-4.5,5.7c-0.3,2.8,0.1,5.6,1.2,8.1l3.2,5.8c0.8,1.5,1.7,3,2.1,4.7c1.1,4.7,0,10.1-3.6,13.4
		c-1.2,1.1-2.9,1.6-4.4,2C22,61,20.3,61,18.8,60.7C17.9,60.6,17.1,60.3,16.3,60z"/>
	<path fill-rule="evenodd" clip-rule="evenodd" fill="#DEC6AD" d="M5,94c1.4,0.1,2.4,1.4,2.3,2.8c-0.2,1.4-1.4,2.4-2.8,2.3
		c-1.4-0.2-2.4-1.4-2.3-2.8C2.4,94.9,3.7,93.9,5,94z"/>
	<path fill-rule="evenodd" clip-rule="evenodd" fill="#DEC6AD" d="M39.3,92.8c1.4,0.2,2.4,1.4,2.3,2.8c-0.1,1.4-1.4,2.4-2.8,2.3
		c-1.4-0.2-2.4-1.4-2.3-2.8C36.6,93.7,37.8,92.7,39.3,92.8z"/>
	<path fill-rule="evenodd" clip-rule="evenodd" fill="#DEC6AD" d="M19.1,51.4c1.4,0.1,2.4,1.4,2.3,2.8c-0.2,1.4-1.4,2.4-2.8,2.3
		c-1.4-0.1-2.4-1.4-2.3-2.8C16.5,52.3,17.8,51.3,19.1,51.4z"/>
	<path fill-rule="evenodd" clip-rule="evenodd" fill="#DEC6AD" d="M22.7,50.2c3,1.4,0.8,7-0.1,9.2c1.7-2.5,4.1-4.9,7.4-4.4
		c-2.6-1.6-5.1,0.5-6.5,2.6C24.6,55.1,27,51.3,22.7,50.2z"/>
	<path fill-rule="evenodd" clip-rule="evenodd" fill="#DEC6AD" d="M8.6,40.2c4.2-5.3,15.5,0.5,19.8,2.8c-4.9-3.9-9.4-9.5-7.5-16.1
		c-4.1,5-0.2,10.5,3.9,13.8C19.8,38,12.5,32.3,8.6,40.2z"/>
	<path fill-rule="evenodd" clip-rule="evenodd" fill="#DEC6AD" d="M35.7,104.6c-0.9-3.5-7.6-3.1-10.2-2.9c3.2-0.8,6.6-2.6,7.1-6.2
		c1,3.3-2.1,5.1-4.8,5.8C30.7,101.2,35.5,100,35.7,104.6z"/>
</g>
</svg>
