<?xml version="1.0" encoding="utf-8"?>
<!-- Generator: Adobe Illustrator 18.1.0, SVG Export Plug-In . SVG Version: 6.00 Build 0)  -->
<!DOCTYPE svg PUBLIC "-//W3C//DTD SVG 1.1//EN" "http://www.w3.org/Graphics/SVG/1.1/DTD/svg11.dtd">
<svg version="1.1" id="Layer_1" xmlns="http://www.w3.org/2000/svg" xmlns:xlink="http://www.w3.org/1999/xlink" x="0px" y="0px"
	 viewBox="0 0 128.8 147.1" enable-background="new 0 0 128.8 147.1" xml:space="preserve">
<g>
	<path fill-rule="evenodd" clip-rule="evenodd" fill="#DEC6AD" d="M12.8,39.1c2,0.7,3.9,1.5,5.9,1.9c4.4,0.8,9.2,0.5,13.1-1.8
		c2.1-1.3,3.8-3,5.2-5c3.5-5.4,5.6-11.7,9.6-16.8c2.6-3.3,6.6-5.2,10.8-5.4c1.4-0.1,3.1,0.1,4.4,0.6c1.7,0.7,3.4,1.7,5,2.7
		c3.7,2.4,7.2,5.1,11.2,6.9c3,1.3,6.3,2,9.6,2.3c3.8,0.4,8.1,0.2,11.2-2.3c2-1.6,3.1-4,3.5-6.5c0.3-1.7,0.2-3.4,0.2-5h0.1
		c0.1,1.7,0.3,3.4,0.1,5.1c-0.4,2.6-1.5,5-3.5,6.8c-2,1.6-4.6,2.4-7.1,2.6c-3.1,0.2-6.2-0.1-9.2-0.8c-4-1-7.8-2.7-11.5-4.7
		c-2.6-1.5-4.7-3.6-7.3-5.1c-2-1.1-4.2-1.7-6.5-1.6c-2.3,0.1-4.6,0.7-6.5,1.9c-2.3,1.4-4.2,3.5-5.6,5.9c-2.8,4.5-4.8,9.5-7.7,13.9
		c-2.1,3.2-5,5.4-8.6,6.5c-3.3,1.1-6.8,1-10.2,0.3C16.6,40.8,14.7,39.9,12.8,39.1z"/>
	<path fill-rule="evenodd" clip-rule="evenodd" fill="#DEC6AD" d="M5.8,22.2C6,23.5,6,24.8,6.4,26c1.8,5.9,8.3,8.6,14,8.8
		c6.2,0.2,11.7-2.3,13.3-8.7c1.2-4.8-0.2-10.9-4.9-13.3c-2.7-1.4-6.1-2-8.9-1.4l0-0.1c2.9-0.8,6.2-0.3,9.1,1.1
		c3.7,1.7,5.6,5.5,5.9,9.5c0.6,9-5.9,14.2-14.5,13.7c-5.9-0.3-12.7-3.3-14.3-9.5C5.8,24.8,5.8,23.5,5.8,22.2z"/>
	<path fill-rule="evenodd" clip-rule="evenodd" fill="#DEC6AD" d="M37.5,33.9c0.4-2,1.1-4,1-6c-0.2-3.5-2.4-6.7-5.6-8.2
		c-2.1-0.9-5-1.1-6.9,0.2c-1.4,0.8-2.2,2.2-3.3,3.3c-1.1,1.1-2.2,2.1-3.6,2.7c-0.9,0.4-1.8,0.7-2.8,0.8c-1.8,0.2-4-0.3-5.5-1.4
		c-0.5-0.4-0.7-0.8-1-1.2l0.1,0c0.7,0.8,1.4,1.4,2.5,1.7c2.6,0.8,5.2,0.6,7.5-0.9c1.4-1,2.4-2.3,3.5-3.6c0.9-1,1.8-2,3-2.5
		c2.1-0.9,4.8-0.6,6.8,0.3c2.6,1.2,4.7,3.6,5.3,6.4c0.4,1.7,0.5,3.6,0.1,5.4L37.5,33.9z"/>
	<path fill-rule="evenodd" clip-rule="evenodd" fill="#DEC6AD" d="M51.7,13.7c0.7-0.3,1.4-0.5,2.1-0.7c1.6-0.2,3.5,0.2,4.8,1.4
		c1.2,1.2,2.3,2.7,2.5,4.4c0.2,2-0.7,3.9-2.6,4.7c-1.6,0.6-3.1,0.1-4.6-0.3v-0.1c1.5,0.2,2.9,0.5,4.4-0.1c1.5-0.7,2.2-2.4,2-4
		c-0.4-2.5-2.2-4.8-4.7-5.4C54.2,13.4,52.9,13.6,51.7,13.7z"/>
	<path fill-rule="evenodd" clip-rule="evenodd" fill="#DEC6AD" d="M52,13.6c1-0.3,2-0.6,3-0.7c4.1-0.2,8,2.3,9.4,6.1
		c2.1,5.8,0.2,12-6.3,13.1c-8.6,1.3-14.7-4.8-15.4-12.9C42.1,13,45.2,6.7,50.8,3.9c7.4-3.8,14-0.7,19.1,4.5c2.2,2.3,3.7,3.5,6.8,3.5
		l0,0.1c-3.3,0.2-4.8-1.1-7.1-3.3c-5.1-4.9-11.3-8-18.5-4.2c-3.9,2.1-6.7,6-7.5,10.4c-1.6,8.9,4.3,18,14.3,16.6
		c9-1.3,8.7-14.2,1-17.5c-1.2-0.5-2.6-0.8-3.9-0.7C53.9,13.2,52.9,13.4,52,13.6z"/>
	<path fill-rule="evenodd" clip-rule="evenodd" fill="#DEC6AD" d="M63.7,18.3c1,1.4,1.8,3,3,4.2c2.5,2.5,5.8,4.4,9.3,4.9
		c3.3,0.5,6.4-0.4,9.2-2.2c9.2-5.8,8.1-18.4,21.2-19.9c5.6-0.6,11.3,1.1,16.9-0.2c1.1-0.2,2.2-0.9,3-1.8c0.4-0.5,0.7-1,1-1.6l0.1,0
		c-0.4,0.9-0.7,1.7-1.5,2.4c-4.6,3.8-13.8,1.2-19.3,1.9c-11,1.4-10.8,9.5-17,16.7c-2,2.3-5.4,4.4-8.3,5.1c-6.2,1.4-13-2-16.4-7.2
		L63.7,18.3z"/>
	<path fill-rule="evenodd" clip-rule="evenodd" fill="#DEC6AD" d="M95.8,11.5c2.7-3.1,5.8-4.6,9.9-5.2c2.3-0.4,4.7-0.3,6.9,0.6
		c3.4,1.3,5,5.3,4.6,8c-0.3,2.1-1.9,3.4-4.3,2.2c-0.4-0.2-0.8-0.5-1.1-0.9c-0.2-0.3-0.3-0.6-0.4-0.9l0.1,0c0.4,0.8,0.9,1.5,1.9,1.7
		c5.3,1.2,3.3-7.5-1.1-9.2C106.7,5.6,100,7.6,95.8,11.5z"/>
	<path fill-rule="evenodd" clip-rule="evenodd" fill="#DEC6AD" d="M46,2.1c-7.5,2.3-6.2,17-5.6,22.6c-2.1-7-6.2-14.3-14.1-15.1
		c7.1-2.3,11.5,4.4,13.2,10.2C38.8,13.2,35.8,2.8,46,2.1z"/>
	<path fill-rule="evenodd" clip-rule="evenodd" fill="#DEC6AD" d="M10.4,12c0.8-0.6,1.5-1.7,2.3-2.3l3-1.9
		c-4.4,2.7-4.3,7.4-2.6,10.7C9,17.9,9,13.9,10.4,12z"/>
	<path fill-rule="evenodd" clip-rule="evenodd" fill="#DEC6AD" d="M9.9,24.1c1.3,7.8,8.2,4.9,9.1,2.9c1.8,0.9,2.9,0,3.4-0.5
		c0.8-0.9,0.5-2.6,1.3-4.4c-0.3,0.4-0.7,0.8-1,1.1c-1.1,1.1-2.2,2.1-3.6,2.7c-0.9,0.4-1.8,0.7-2.8,0.8c-1.8,0.2-4-0.3-5.5-1.4
		C10.4,24.9,10.1,24.5,9.9,24.1z"/>
	<path fill-rule="evenodd" clip-rule="evenodd" fill="#DEC6AD" d="M20.8,15.6c1.2-0.1,2.1-1.2,2-2.4c-0.1-1.2-1.2-2.1-2.4-1.9
		c-1.2,0.1-2.1,1.2-2,2.4C18.5,14.8,19.6,15.7,20.8,15.6z"/>
	<path fill-rule="evenodd" clip-rule="evenodd" fill="#DEC6AD" d="M23.7,21.9c-1.9,3.8,0.6,8.9,8.1,6c-6.3,0.5-9.8-7.7-2.3-8.9
		c-1.3,0-2.6,0.2-3.6,0.9C25,20.3,24.3,21.1,23.7,21.9z"/>
	<path fill-rule="evenodd" clip-rule="evenodd" fill="#DEC6AD" d="M76.7,11.9L76.7,11.9L76.7,11.9L76.7,11.9z M76,12
		c-5.2,0.7-6,0.3-5.9-1.3c-1.5,0.3-2.2-0.5-2.4-1.1c-0.1-0.4-0.3-1.5,0.7-2.1c0.4,0.4,0.8,0.7,1.2,1.1C71.8,10.7,73.2,11.9,76,12z"
		/>
	<path fill-rule="evenodd" clip-rule="evenodd" fill="#DEC6AD" d="M28.6,40.7c-1,0-3.4,0.8-4.4,0.8l-3.3-0.2c2.9,0.2,5.6-0.9,7-2.7
		c0.9-1.1,1.7-2.5,1.1-4.4C31.8,37,30.7,40.1,28.6,40.7z"/>
	<path fill-rule="evenodd" clip-rule="evenodd" fill="#DEC6AD" d="M36.6,35c-0.7,0.6-1.2,1.6-1.9,2.3l-2.6,2c3.9-2.9,3.5-7,2.3-9.3
		C37.4,30.4,37.8,33.1,36.6,35z"/>
	<path fill-rule="evenodd" clip-rule="evenodd" fill="#DEC6AD" d="M67.6,6.6c1.2,2.6-3.8,5.7-6.4,1.7c2.9,2.4,7.3-0.3,4.2-3.5
		C65.9,5.2,67.6,6.1,67.6,6.6z"/>
	<path fill-rule="evenodd" clip-rule="evenodd" fill="#DEC6AD" d="M44.7,10.1c-0.2,1-1.4,3.5-1.6,4.5l-0.3,3.5
		c0.2-3.1,1.8-5.9,4-7.1c1.4-0.8,3-1.4,4.8-0.5C49.2,7.3,45.7,8,44.7,10.1z"/>
	<path fill-rule="evenodd" clip-rule="evenodd" fill="#DEC6AD" d="M55.7,2.6C55,2.8,53,3.1,52.3,3.4l-2.2,1.2c2-1.1,4.2-1.2,5.8-0.4
		c1,0.5,2,1.2,2.2,2.7C59.2,4.1,57.4,2.3,55.7,2.6z"/>
	<path fill-rule="evenodd" clip-rule="evenodd" fill="#DEC6AD" d="M76.6,31.3c-4.5,1.7-9.2-6-11-8.9c1.6,4.2,2.3,9.2-1.3,12.5
		c4.3-1.5,4-6.3,2.7-9.8C69,28.5,71.4,34.6,76.6,31.3z"/>
	<path fill-rule="evenodd" clip-rule="evenodd" fill="#DEC6AD" d="M38.5,15.3c-0.8-2.4-1.6-4.2-3.6-5.8c-5.3-4.1-12.4-4.8-18.6-1.8
		C9.2,11.2,5.3,19.3,6.4,27c0.5,3.7,2.2,7.3,4.9,9.9c13.7,13.3,28.6,1,36.1-11.1c4.2-6.8,5.9-14.4,12.9-18.9c5-3.2,11-4.4,16.8-3.2
		c6.3,1.4,10.8,7.1,11.4,13.2l0.3,2.6v0c0.3,2.5-1.4,3.4-3.1,3.5c-2.5,0-3.4-1.9-3-3.2c0.2,1.7,1.7,3,3.4,2.7c1.1-0.2,2.1-1.1,2-2.9
		c-0.1-1.1-1.4-2.2-2.7-2.5c-2-0.4-2.4-2.6-0.9-4c1.1-1,0.9-2.4,0.3-3.6c-2-2.5-4.6-4.4-7.8-5c-5.6-1.1-11.3,0.1-16.1,3.3
		c-6.8,4.5-8.3,12.1-12.3,18.7c-7.7,12.6-20.6,23.7-35.7,13.4C7.7,36.4,5,30.3,5.1,24.2c0.1-5,2-10,5.6-13.6
		c6.8-6.8,20.4-7.8,26.3,0.7C38,12.6,38.2,13.9,38.5,15.3z"/>
	<path fill-rule="evenodd" clip-rule="evenodd" fill="#DEC6AD" d="M80,5.3l-3.3-1.5c2.4,1.7,4,3.8,4.1,5.7c0.1,1.2-0.5,2.3-1.8,3.2
		c1.8-0.4,2.9-1.7,3-3.2C82.2,8,81.2,6.3,80,5.3z"/>
	<path fill-rule="evenodd" clip-rule="evenodd" fill="#DEC6AD" d="M113.7,16.9c1.2-0.1,2.1-1.2,2-2.4c-0.1-1.2-1.2-2.1-2.4-1.9
		c-1.2,0.1-2,1.2-1.9,2.4C111.5,16.2,112.5,17,113.7,16.9z"/>
	<path fill-rule="evenodd" clip-rule="evenodd" fill="#DEC6AD" d="M102.4,10.7c1.3,3.7,2.8,4.7,2.9,6.3c0,2.4-1.7,2.6-2.9,2.5
		c-0.2,4.1-1.5,3.4-5,3.8c0.5-0.1,1-0.5,1.4-0.8c1.1-0.9,1.2-1.2,2.1-2.4c0.6-0.8,0.8-1.8,1.2-2.7c0.2-0.7,0.4-1.2,0.5-1.9
		C102.6,13.9,102.4,12.2,102.4,10.7z"/>
	<path fill-rule="evenodd" clip-rule="evenodd" fill="#DEC6AD" d="M123.5,15.8c1.2-3.7-5.2-7.4-7.7-8.7c3.5,1.1,7.7,1.5,10.3-1.5
		c-1.1,3.6-5.1,3.5-8,2.5C121,9.6,126.1,11.4,123.5,15.8z"/>
	<path fill-rule="evenodd" clip-rule="evenodd" fill="#DEC6AD" d="M118.4,17.6c2.7-2.2-0.5-7.7-2.6-9.6
		C118.7,10.3,123.1,15.1,118.4,17.6z"/>
	<path fill-rule="evenodd" clip-rule="evenodd" fill="#DEC6AD" d="M55.2,23.5c1.2-0.1,2.1-1.2,1.9-2.4c-0.1-1.2-1.2-2.1-2.4-1.9
		c-1.2,0.1-2.1,1.2-1.9,2.4C52.9,22.7,54,23.6,55.2,23.5z"/>
	<path fill-rule="evenodd" clip-rule="evenodd" fill="#DEC6AD" d="M12.4,38.9c5.8,4.5,11.8,8.8,16.8,14.2c2.3,2.6,4,5.8,5.4,8.9
		c1.4,3.3,2.6,6.8,2.9,10.4c0.5,5.3,0.2,10.7-0.8,16.1c-0.5,2.4-1.6,4.7-2.9,6.8c-2.4,3.9-6,7.2-10.6,8.2c-3.8,0.7-8-0.3-10.5-3.2
		c-1.8-2-2.6-4.7-1.9-7.3c0.6-2.3,2-4.4,4.1-5.5c2-1.1,4.3-0.8,5.9,0.7c1,0.9,1.5,1.9,2,3.1l-0.1,0c-0.6-1.1-1.1-2.2-2.1-3
		c-1.6-1.3-3.8-1.5-5.5-0.5c-2.4,1.4-3.9,4.1-4,6.8c-0.1,3.1,1.9,5.9,4.6,7.2c2.9,1.5,6.4,1.5,9.4,0.3c3.5-1.4,6.2-4.1,8.1-7.3
		c1.2-2.1,2.3-4.3,2.7-6.6c1-5.2,1.4-10.5,0.9-15.7c-0.3-3.5-1.4-7-2.8-10.3c-1.3-3.2-2.9-6.3-5.2-8.9C23.9,48,18,43.6,12.4,38.9z"
		/>
	<path fill-rule="evenodd" clip-rule="evenodd" fill="#DEC6AD" d="M17.9,42.1l8.8,6.2c5.5,4.2,12.5,8.3,15,15.3
		c1.6,4.4,0.9,9.3-2.1,12.9c-2.6,3.1-6.5,4.9-10.5,5.3c-3.4,0.3-7-0.2-10.2-1.5c-2.6-1.1-4.8-2.8-6.2-5.2c-1.1-1.8-1.7-3.9-2-6
		c-0.2-1.4-0.1-3.2,0.5-4.5c0.7-1.6,1.7-3,2.7-4.4c1.3-1.9,3.1-3.6,3.3-6c0.4-4.8-4.4-9.1-9-8.8c-1.5,0.1-3,0.7-4.1,1.8
		c-0.6,0.7-1.1,1.5-1.6,2.3l-0.1,0C3,48.5,3.4,47.6,4,46.9c1.7-1.8,4.2-2.3,6.6-1.8c3.1,0.7,6.1,3.1,7,6.2c0.5,1.7,0.5,3.5-0.4,5
		c-0.8,1.4-1.8,2.7-2.7,4c-1,1.4-1.9,2.7-2.6,4.3c-0.6,1.3-0.6,2.9-0.5,4.2c0.4,3.3,1.9,6.5,4.4,8.6c2.2,1.8,5,2.7,7.7,3.2
		c4.2,0.6,8.5,0.3,12.2-1.9c3.7-2.2,6.1-6.2,6.1-10.5c0-2.3-0.7-4.7-1.8-6.7c-3-5.6-8.9-9.2-13.6-12.9L17.9,42.1z"/>
	<path fill-rule="evenodd" clip-rule="evenodd" fill="#DEC6AD" d="M27.7,81.3c-1.4-0.1-2.7-0.1-4-0.4c-4.1-1-7.8-4.6-8.2-8.9
		c-0.2-2.1,0.3-4.3,1.9-5.7c1.8-1.7,4.2-1.9,6.5-1.7c2.4,0.2,4.7,1.1,7.1,1.3c2.4,0.2,4.9-0.1,7.2-0.9c4.4-1.5,8.5-6,7.5-10.9
		c-0.5-2.4-2.4-4.3-4.8-4.7c-0.6-0.1-1.2-0.1-1.7,0c-0.6,0.1-1.2,0.3-1.8,0.5l0-0.1C38.3,49.3,39,49,40,49c2.6-0.1,4.9,1.6,5.9,4
		c0.9,2.3,0.5,5.1-0.7,7.2c-2.1,3.7-6.2,5.9-10.3,6.5c-2.5,0.4-5.1-0.3-7.6-0.6c-2.2-0.3-4.4-0.7-6.6-0.6c-0.7,0-1.6,0.5-2.2,0.9
		c-1.8,1.2-2.5,3.5-2.3,5.6c0.2,2.9,2.2,5.7,4.7,7.3c0.9,0.6,2,1.1,3.1,1.4C25.1,81,26.4,81.1,27.7,81.3z"/>
	<path fill-rule="evenodd" clip-rule="evenodd" fill="#DEC6AD" d="M14.3,88.1c1.9-1.1,3.7-2.4,5.8-3c3.1-1,6.5-0.9,9.4,0.9
		c2,1.2,3.5,3.2,4.5,5.3c2,4.1,2.4,9.2,1.7,13.7c-0.5,3.6-2,6.9-3.4,10.3l-5.2,12.3c-1.1,3.5-2.1,7.1-1,10.7c1,3.1,3.6,6.4,7.1,6.8
		c1.3,0.1,2.5-0.1,3.6-0.8c0.9-0.5,1.6-1.4,2.3-2.1l0.1,0.1c-0.7,0.8-1.4,1.7-2.3,2.2c-2.3,1.5-5.1,1.1-7.2-0.4
		c-1.5-1.1-2.7-2.6-3.5-4.3c-3-6.2,0.5-13.3,2.7-19.1c1.3-3.3,3.4-6.4,4.4-9.8c1.2-3.8,1.8-7.8,1.9-11.9c0.1-1.8-0.4-3.5-0.9-5.3
		c-0.9-2.9-2.5-5.7-5.1-7.4c-2.7-1.7-5.9-1.9-9-1C18.2,86,16.3,87.1,14.3,88.1z"/>
	<path fill-rule="evenodd" clip-rule="evenodd" fill="#DEC6AD" d="M16,87.1c2.3-1.2,4.4-2.7,7-3.3c4-1,8.1,0,11.2,2.7
		c1.5,1.3,2.7,3,3.6,4.8c1.5,3,2.6,6.3,2.6,9.8c-0.1,4.4-2.7,7.8-5.7,10.7c-3.6,3.5-8.1,6.6-10.2,11.3c-1.4,2.9-2,6.2-0.9,9.3
		c1.1,3.2,3.9,6.3,7.4,6.6c1.3,0.1,2.6-0.2,3.7-0.9c0.9-0.5,1.6-1.4,2.4-2.1l0.1,0c-0.8,0.8-1.4,1.7-2.3,2.3
		c-2.3,1.5-5.2,1.2-7.5-0.2c-2-1.3-3.5-3.3-4.3-5.5c-1.5-4.1-0.2-8.7,2.1-12.2c2.4-3.6,5.9-6.2,9-9.3c2.2-2.2,4.4-4.7,5.2-7.7
		c0.7-2.8,0.4-5.6-0.5-8.3c-1.3-3.8-3.4-7.7-7.1-9.8c-2.6-1.4-5.6-1.8-8.5-1.2C20.5,84.6,18.3,86,16,87.1z"/>
	<path fill-rule="evenodd" clip-rule="evenodd" fill="#DEC6AD" d="M29.4,81.2c-1.7,0-3.3,0.1-4.9-0.5c-2.7-0.9-5.4-3.2-5.9-6.1
		c-0.2-1.2,0-2.6,0.5-3.8c1.7-3.6,7.2-3.9,9.8-1.1c0.9,1,1.1,2,1,3.3c-1.8-2.9-6.5-3.7-8.3-1.4c-1.7,2.1-0.8,4.3,0.5,5.7
		C23.7,79.4,27,80.5,29.4,81.2z"/>
	<path fill-rule="evenodd" clip-rule="evenodd" fill="#DEC6AD" d="M24.3,81.1c-2.1-0.7-4.2-1.4-6.2-2.3c-4.8-2.2-7.7-11.7-3.8-15.8
		c3.7-3.9,10-3.5,8.6-10.5l0.1,0c0.6,1.8,1.5,4.1,0.6,6c-1.6,3.4-6.4,4.1-8.4,8.2c-2.3,4.6,1,11.3,5.9,13.1L24.3,81.1z"/>
	<path fill-rule="evenodd" clip-rule="evenodd" fill="#DEC6AD" d="M29.2,100.2c-1.1,0.8-2.2,1.6-3.4,2.1c-3.8,1.4-9,0.5-11.2-3.2
		c-1.4-2.3-1.6-5.7,0.4-7.7c1.3-1.2,3.2-2.1,4.9-1.1c0.6,0.4,0.9,0.8,1.2,1.4L21,91.9c-0.7-0.8-1.6-1.7-2.8-1.5
		c-1.5,0.2-2.8,1.1-3.5,2.5c-0.9,1.8-0.5,4.1,0.6,5.8c1.5,2.3,4.3,3.5,7,3.6c1.1,0,2.3-0.1,3.3-0.4
		C26.9,101.5,28.1,100.7,29.2,100.2z"/>
	<path fill-rule="evenodd" clip-rule="evenodd" fill="#DEC6AD" d="M16.3,87c0.8-0.4,1.5-0.8,2.4-1c2.2-0.5,4.6-0.3,6.7,0.4
		c2.7,0.9,4.7,2.8,5.9,5.4c2,3.9,2,8.8,0.3,12.8c-0.7,1.7-2,3.2-2.9,4.8c-2,3.6-3.8,7.7-2.8,11.8c0.7,2.8,3.5,5.1,6.4,4.8
		c0.9-0.1,1.8-0.4,2.6-0.9c0.6-0.4,1.1-1,1.7-1.5l0.1,0.1c-0.5,0.6-1,1.2-1.6,1.7c-1.5,1.1-3.5,1.4-5.3,0.8
		c-2.3-0.8-4.3-3.2-4.5-5.7c-0.3-2.8,0.1-5.6,1.2-8.1l3.2-5.8c0.8-1.5,1.7-3,2.1-4.7c1.1-4.7,0-10.1-3.6-13.4
		c-1.2-1.1-2.9-1.6-4.4-2c-1.6-0.3-3.2-0.4-4.8-0.1C17.9,86.4,17.1,86.8,16.3,87z"/>
	<path fill-rule="evenodd" clip-rule="evenodd" fill="#DEC6AD" d="M5,53c1.4-0.1,2.4-1.4,2.3-2.8c-0.2-1.4-1.4-2.4-2.8-2.3
		c-1.4,0.2-2.4,1.4-2.3,2.8C2.4,52.1,3.7,53.2,5,53z"/>
	<path fill-rule="evenodd" clip-rule="evenodd" fill="#DEC6AD" d="M39.3,54.2c1.4-0.2,2.4-1.4,2.3-2.8c-0.1-1.4-1.4-2.4-2.8-2.3
		c-1.4,0.2-2.4,1.4-2.3,2.8C36.6,53.3,37.8,54.4,39.3,54.2z"/>
	<path fill-rule="evenodd" clip-rule="evenodd" fill="#DEC6AD" d="M19.1,95.6c1.4-0.1,2.4-1.4,2.3-2.8c-0.2-1.4-1.4-2.4-2.8-2.3
		c-1.4,0.1-2.4,1.4-2.3,2.8C16.5,94.7,17.8,95.8,19.1,95.6z"/>
	<path fill-rule="evenodd" clip-rule="evenodd" fill="#DEC6AD" d="M22.7,96.8c3-1.4,0.8-7-0.1-9.2c1.7,2.5,4.1,4.9,7.4,4.4
		c-2.6,1.6-5.1-0.5-6.5-2.6C24.6,92,27,95.7,22.7,96.8z"/>
	<path fill-rule="evenodd" clip-rule="evenodd" fill="#DEC6AD" d="M8.6,106.8c4.2,5.3,15.5-0.5,19.8-2.8c-4.9,3.9-9.4,9.5-7.5,16.1
		c-4.1-5-0.2-10.5,3.9-13.8C19.8,109,12.5,114.7,8.6,106.8z"/>
	<path fill-rule="evenodd" clip-rule="evenodd" fill="#DEC6AD" d="M35.7,42.4c-0.9,3.5-7.6,3.1-10.2,2.9c3.2,0.8,6.6,2.6,7.1,6.2
		c1-3.3-2.1-5.1-4.8-5.8C30.7,45.9,35.5,47.1,35.7,42.4z"/>
</g>
</svg>
