<?xml version="1.0" encoding="utf-8"?>
<!-- Generator: Adobe Illustrator 18.1.0, SVG Export Plug-In . SVG Version: 6.00 Build 0)  -->
<!DOCTYPE svg PUBLIC "-//W3C//DTD SVG 1.1//EN" "http://www.w3.org/Graphics/SVG/1.1/DTD/svg11.dtd">
<svg version="1.1" id="Layer_1" xmlns="http://www.w3.org/2000/svg" xmlns:xlink="http://www.w3.org/1999/xlink" x="0px" y="0px"
	 viewBox="0 0 128.8 147.1" enable-background="new 0 0 128.8 147.1" xml:space="preserve">
<g>
	<path fill-rule="evenodd" clip-rule="evenodd" fill="#DEC6AD" d="M116.9,39.1c-2,0.7-3.9,1.5-5.9,1.9c-4.4,0.8-9.2,0.5-13.1-1.8
		c-2.1-1.3-3.8-3-5.2-5c-3.5-5.4-5.6-11.7-9.6-16.8c-2.6-3.3-6.6-5.2-10.8-5.4c-1.4-0.1-3.1,0.1-4.4,0.6c-1.7,0.7-3.4,1.7-5,2.7
		c-3.7,2.4-7.2,5.1-11.2,6.9c-3,1.3-6.3,2-9.6,2.3c-3.8,0.4-8.1,0.2-11.2-2.3c-2-1.6-3.1-4-3.5-6.5c-0.3-1.7-0.2-3.4-0.2-5h-0.1
		c-0.1,1.7-0.3,3.4-0.1,5.1c0.4,2.6,1.5,5,3.5,6.8c2,1.6,4.6,2.4,7.1,2.6c3.1,0.2,6.2-0.1,9.2-0.8c4-1,7.8-2.7,11.5-4.7
		c2.6-1.5,4.7-3.6,7.3-5.1c2-1.1,4.2-1.7,6.5-1.6c2.3,0.1,4.6,0.7,6.5,1.9c2.3,1.4,4.2,3.5,5.6,5.9c2.8,4.5,4.8,9.5,7.7,13.9
		c2.1,3.2,5,5.4,8.6,6.5c3.3,1.1,6.8,1,10.2,0.3C113,40.8,114.9,39.9,116.9,39.1z"/>
	<path fill-rule="evenodd" clip-rule="evenodd" fill="#DEC6AD" d="M123.8,22.2c-0.1,1.3-0.2,2.6-0.6,3.8c-1.8,5.9-8.3,8.6-14,8.8
		c-6.2,0.2-11.7-2.3-13.3-8.7c-1.2-4.8,0.2-10.9,4.9-13.3c2.7-1.4,6.1-2,8.9-1.4l0-0.1c-2.9-0.8-6.2-0.3-9.1,1.1
		c-3.7,1.7-5.6,5.5-5.9,9.5c-0.6,9,5.9,14.2,14.5,13.7c5.9-0.3,12.7-3.3,14.3-9.5C123.9,24.8,123.8,23.5,123.8,22.2z"/>
	<path fill-rule="evenodd" clip-rule="evenodd" fill="#DEC6AD" d="M92.2,33.9c-0.4-2-1.1-4-1-6c0.2-3.5,2.4-6.7,5.6-8.2
		c2.1-0.9,5-1.1,6.9,0.2c1.4,0.8,2.2,2.2,3.3,3.3c1.1,1.1,2.2,2.1,3.6,2.7c0.9,0.4,1.8,0.7,2.8,0.8c1.8,0.2,4-0.3,5.5-1.4
		c0.5-0.4,0.7-0.8,1-1.2l-0.1,0c-0.7,0.8-1.4,1.4-2.5,1.7c-2.6,0.8-5.2,0.6-7.5-0.9c-1.4-1-2.4-2.3-3.5-3.6c-0.9-1-1.8-2-3-2.5
		c-2.1-0.9-4.8-0.6-6.8,0.3c-2.6,1.2-4.7,3.6-5.3,6.4c-0.4,1.7-0.5,3.6-0.1,5.4L92.2,33.9z"/>
	<path fill-rule="evenodd" clip-rule="evenodd" fill="#DEC6AD" d="M78,13.7c-0.7-0.3-1.4-0.5-2.1-0.7c-1.6-0.2-3.5,0.2-4.8,1.4
		c-1.2,1.2-2.3,2.7-2.5,4.4c-0.2,2,0.7,3.9,2.6,4.7c1.6,0.6,3.1,0.1,4.6-0.3v-0.1c-1.5,0.2-2.9,0.5-4.4-0.1c-1.5-0.7-2.2-2.4-2-4
		c0.4-2.5,2.2-4.8,4.7-5.4C75.4,13.4,76.7,13.6,78,13.7z"/>
	<path fill-rule="evenodd" clip-rule="evenodd" fill="#DEC6AD" d="M77.7,13.6c-1-0.3-2-0.6-3-0.7c-4.1-0.2-8,2.3-9.4,6.1
		c-2.1,5.8-0.2,12,6.3,13.1c8.6,1.3,14.7-4.8,15.4-12.9c0.5-6.2-2.6-12.5-8.2-15.4c-7.4-3.8-14-0.7-19.1,4.5
		c-2.2,2.3-3.7,3.5-6.8,3.5l0,0.1c3.3,0.2,4.8-1.1,7.1-3.3c5.1-4.9,11.3-8,18.5-4.2c3.9,2.1,6.7,6,7.5,10.4
		c1.6,8.9-4.3,18-14.3,16.6c-9-1.3-8.7-14.2-1-17.5c1.2-0.5,2.6-0.8,3.9-0.7C75.7,13.2,76.7,13.4,77.7,13.6z"/>
	<path fill-rule="evenodd" clip-rule="evenodd" fill="#DEC6AD" d="M65.9,18.3c-1,1.4-1.8,3-3,4.2c-2.5,2.5-5.8,4.4-9.3,4.9
		c-3.3,0.5-6.4-0.4-9.2-2.2c-9.2-5.8-8.1-18.4-21.2-19.9C17.5,4.7,11.8,6.4,6.3,5.1C5.1,4.8,4,4.2,3.3,3.3c-0.4-0.5-0.7-1-1-1.6
		l-0.1,0C2.7,2.6,3,3.4,3.7,4.1C8.3,7.9,17.5,5.3,23.1,6c11,1.4,10.8,9.5,17,16.7c2,2.3,5.4,4.4,8.3,5.1c6.2,1.4,13-2,16.4-7.2
		L65.9,18.3z"/>
	<path fill-rule="evenodd" clip-rule="evenodd" fill="#DEC6AD" d="M33.9,11.5C31.2,8.5,28,6.9,24,6.3c-2.3-0.4-4.7-0.3-6.9,0.6
		c-3.4,1.3-5,5.3-4.6,8c0.3,2.1,1.9,3.4,4.3,2.2c0.4-0.2,0.8-0.5,1.1-0.9c0.2-0.3,0.3-0.6,0.4-0.9l-0.1,0c-0.4,0.8-0.9,1.5-1.9,1.7
		c-5.3,1.2-3.3-7.5,1.1-9.2C23,5.6,29.6,7.6,33.9,11.5z"/>
	<path fill-rule="evenodd" clip-rule="evenodd" fill="#DEC6AD" d="M83.6,2.1c7.5,2.3,6.2,17,5.6,22.6c2.1-7,6.2-14.3,14.1-15.1
		c-7.1-2.3-11.5,4.4-13.2,10.2C90.8,13.2,93.8,2.8,83.6,2.1z"/>
	<path fill-rule="evenodd" clip-rule="evenodd" fill="#DEC6AD" d="M119.2,12c-0.8-0.6-1.5-1.7-2.3-2.3l-3-1.9
		c4.4,2.7,4.3,7.4,2.6,10.7C120.7,17.9,120.7,13.9,119.2,12z"/>
	<path fill-rule="evenodd" clip-rule="evenodd" fill="#DEC6AD" d="M119.8,24.1c-1.3,7.8-8.2,4.9-9.1,2.9c-1.8,0.9-2.9,0-3.4-0.5
		c-0.8-0.9-0.5-2.6-1.3-4.4c0.3,0.4,0.7,0.8,1,1.1c1.1,1.1,2.2,2.1,3.6,2.7c0.9,0.4,1.8,0.7,2.8,0.8c1.8,0.2,4-0.3,5.5-1.4
		C119.3,24.9,119.5,24.5,119.8,24.1z"/>
	<path fill-rule="evenodd" clip-rule="evenodd" fill="#DEC6AD" d="M108.8,15.6c-1.2-0.1-2.1-1.2-2-2.4c0.1-1.2,1.2-2.1,2.4-1.9
		c1.2,0.1,2.1,1.2,2,2.4C111.1,14.8,110,15.7,108.8,15.6z"/>
	<path fill-rule="evenodd" clip-rule="evenodd" fill="#DEC6AD" d="M106,21.9c1.9,3.8-0.6,8.9-8.1,6c6.3,0.5,9.8-7.7,2.3-8.9
		c1.3,0,2.6,0.2,3.6,0.9C104.7,20.3,105.3,21.1,106,21.9z"/>
	<path fill-rule="evenodd" clip-rule="evenodd" fill="#DEC6AD" d="M53,11.9L53,11.9L53,11.9L53,11.9z M60.1,8.6
		c0.4-0.4,0.8-0.8,1.2-1.1c1,0.5,0.8,1.7,0.7,2.1c-0.2,0.5-0.9,1.4-2.4,1.1c0.1,1.6-0.8,2-5.9,1.3C56.4,11.9,57.9,10.7,60.1,8.6z"/>
	<path fill-rule="evenodd" clip-rule="evenodd" fill="#DEC6AD" d="M101.1,40.7c1,0,3.4,0.8,4.4,0.8l3.3-0.2c-2.9,0.2-5.6-0.9-7-2.7
		c-0.9-1.1-1.7-2.5-1.1-4.4C97.8,37,99,40.1,101.1,40.7z"/>
	<path fill-rule="evenodd" clip-rule="evenodd" fill="#DEC6AD" d="M93.1,35c0.7,0.6,1.2,1.6,1.9,2.3l2.6,2c-3.9-2.9-3.5-7-2.3-9.3
		C92.2,30.4,91.9,33.1,93.1,35z"/>
	<path fill-rule="evenodd" clip-rule="evenodd" fill="#DEC6AD" d="M62,6.6c-1.2,2.6,3.8,5.7,6.4,1.7c-2.9,2.4-7.3-0.3-4.2-3.5
		C63.8,5.2,62.1,6.1,62,6.6z"/>
	<path fill-rule="evenodd" clip-rule="evenodd" fill="#DEC6AD" d="M84.9,10.1c0.2,1,1.4,3.5,1.6,4.5l0.3,3.5c-0.2-3.1-1.8-5.9-4-7.1
		c-1.4-0.8-3-1.4-4.8-0.5C80.5,7.3,83.9,8,84.9,10.1z"/>
	<path fill-rule="evenodd" clip-rule="evenodd" fill="#DEC6AD" d="M73.9,2.6c0.7,0.3,2.7,0.5,3.4,0.8l2.2,1.2
		c-2-1.1-4.2-1.2-5.8-0.4c-1,0.5-2,1.2-2.2,2.7C70.4,4.1,72.2,2.3,73.9,2.6z"/>
	<path fill-rule="evenodd" clip-rule="evenodd" fill="#DEC6AD" d="M53.1,31.3c4.5,1.7,9.2-6,11-8.9c-1.6,4.2-2.3,9.2,1.3,12.5
		c-4.3-1.5-4-6.3-2.7-9.8C60.6,28.5,58.3,34.6,53.1,31.3z"/>
	<path fill-rule="evenodd" clip-rule="evenodd" fill="#DEC6AD" d="M91.2,15.3c0.8-2.4,1.6-4.2,3.6-5.8c5.3-4.1,12.4-4.8,18.6-1.8
		c7.1,3.5,10.9,11.6,9.8,19.3c-0.5,3.7-2.2,7.3-4.9,9.9c-13.7,13.3-28.6,1-36.1-11.1C78,19.1,76.4,11.5,69.3,7
		c-5-3.2-11-4.4-16.8-3.2C46.2,5.2,41.7,10.9,41.1,17l-0.3,2.6v0c-0.3,2.5,1.4,3.4,3.1,3.5c2.5,0,3.4-1.9,3-3.2
		c-0.2,1.7-1.7,3-3.4,2.7c-1.1-0.2-2.1-1.1-2-2.9c0.1-1.1,1.4-2.2,2.7-2.5c2-0.4,2.4-2.6,0.9-4c-1.1-1-0.9-2.4-0.3-3.6
		c2-2.5,4.6-4.4,7.8-5C58.2,3.4,64,4.6,68.8,7.8c6.8,4.5,8.3,12.1,12.3,18.7c7.7,12.6,20.6,23.7,35.7,13.4c5.1-3.5,7.8-9.6,7.7-15.7
		c-0.1-5-2-10-5.6-13.6c-6.8-6.8-20.4-7.8-26.3,0.7C91.7,12.6,91.4,13.9,91.2,15.3z"/>
	<path fill-rule="evenodd" clip-rule="evenodd" fill="#DEC6AD" d="M49.7,5.3L53,3.8c-2.4,1.7-4,3.8-4.1,5.7
		c-0.1,1.2,0.5,2.3,1.8,3.2c-1.8-0.4-2.9-1.7-3-3.2C47.5,8,48.5,6.3,49.7,5.3z"/>
	<path fill-rule="evenodd" clip-rule="evenodd" fill="#DEC6AD" d="M16,16.9c-1.2-0.1-2.1-1.2-2-2.4c0.1-1.2,1.2-2.1,2.4-1.9
		c1.2,0.1,2,1.2,1.9,2.4C18.2,16.2,17.1,17,16,16.9z"/>
	<path fill-rule="evenodd" clip-rule="evenodd" fill="#DEC6AD" d="M27.3,10.7c-1.3,3.7-2.8,4.7-2.9,6.3c0,2.4,1.7,2.6,2.9,2.5
		c0.2,4.1,1.5,3.4,5,3.8c-0.5-0.1-1-0.5-1.4-0.8c-1.1-0.9-1.2-1.2-2.1-2.4c-0.6-0.8-0.8-1.8-1.2-2.7c-0.2-0.7-0.4-1.2-0.5-1.9
		C27.1,13.9,27.2,12.2,27.3,10.7z"/>
	<path fill-rule="evenodd" clip-rule="evenodd" fill="#DEC6AD" d="M6.2,15.8c-1.2-3.7,5.2-7.4,7.7-8.7C10.4,8.2,6.2,8.6,3.6,5.5
		c1.1,3.6,5.1,3.5,8,2.5C8.7,9.6,3.6,11.4,6.2,15.8z"/>
	<path fill-rule="evenodd" clip-rule="evenodd" fill="#DEC6AD" d="M11.3,17.6c-2.7-2.2,0.5-7.7,2.6-9.6C11,10.3,6.5,15.1,11.3,17.6z
		"/>
	<path fill-rule="evenodd" clip-rule="evenodd" fill="#DEC6AD" d="M74.5,23.5c-1.2-0.1-2.1-1.2-1.9-2.4c0.1-1.2,1.2-2.1,2.4-1.9
		c1.2,0.1,2.1,1.2,1.9,2.4C76.8,22.7,75.7,23.6,74.5,23.5z"/>
	<path fill-rule="evenodd" clip-rule="evenodd" fill="#DEC6AD" d="M117.3,38.9c-5.8,4.5-11.8,8.8-16.8,14.2c-2.3,2.6-4,5.8-5.4,8.9
		c-1.4,3.3-2.6,6.8-2.9,10.4c-0.5,5.3-0.2,10.7,0.8,16.1c0.5,2.4,1.6,4.7,2.9,6.8c2.4,3.9,6,7.2,10.6,8.2c3.8,0.7,8-0.3,10.5-3.2
		c1.8-2,2.6-4.7,1.9-7.3c-0.6-2.3-2-4.4-4.1-5.5c-2-1.1-4.3-0.8-5.9,0.7c-1,0.9-1.5,1.9-2,3.1l0.1,0c0.6-1.1,1.1-2.2,2.1-3
		c1.6-1.3,3.8-1.5,5.5-0.5c2.4,1.4,3.9,4.1,4,6.8c0.1,3.1-1.9,5.9-4.6,7.2c-2.9,1.5-6.4,1.5-9.4,0.3c-3.5-1.4-6.2-4.1-8.1-7.3
		c-1.2-2.1-2.3-4.3-2.7-6.6c-1-5.2-1.4-10.5-0.9-15.7c0.3-3.5,1.4-7,2.8-10.3c1.3-3.2,2.9-6.3,5.2-8.9
		C105.8,48,111.7,43.6,117.3,38.9z"/>
	<path fill-rule="evenodd" clip-rule="evenodd" fill="#DEC6AD" d="M111.8,42.1l-8.8,6.2c-5.5,4.2-12.5,8.3-15,15.3
		c-1.6,4.4-0.9,9.3,2.1,12.9c2.6,3.1,6.5,4.9,10.5,5.3c3.4,0.3,7-0.2,10.2-1.5c2.6-1.1,4.8-2.8,6.2-5.2c1.1-1.8,1.7-3.9,2-6
		c0.2-1.4,0.1-3.2-0.5-4.5c-0.7-1.6-1.7-3-2.7-4.4c-1.3-1.9-3.1-3.6-3.3-6c-0.4-4.8,4.4-9.1,9-8.8c1.5,0.1,3,0.7,4.1,1.8
		c0.6,0.7,1.1,1.5,1.6,2.3l0.1,0c-0.4-0.8-0.8-1.7-1.5-2.4c-1.7-1.8-4.2-2.3-6.6-1.8c-3.1,0.7-6.1,3.1-7,6.2c-0.5,1.7-0.5,3.5,0.4,5
		c0.8,1.4,1.8,2.7,2.7,4c1,1.4,1.9,2.7,2.6,4.3c0.6,1.3,0.6,2.9,0.5,4.2c-0.4,3.3-1.9,6.5-4.4,8.6c-2.2,1.8-5,2.7-7.7,3.2
		c-4.2,0.6-8.5,0.3-12.2-1.9c-3.7-2.2-6.1-6.2-6.1-10.5c0-2.3,0.7-4.7,1.8-6.7c3-5.6,8.9-9.2,13.6-12.9L111.8,42.1z"/>
	<path fill-rule="evenodd" clip-rule="evenodd" fill="#DEC6AD" d="M101.9,81.3c1.4-0.1,2.7-0.1,4-0.4c4.1-1,7.8-4.6,8.2-8.9
		c0.2-2.1-0.3-4.3-1.9-5.7c-1.8-1.7-4.2-1.9-6.5-1.7c-2.4,0.2-4.7,1.1-7.1,1.3c-2.4,0.2-4.9-0.1-7.2-0.9c-4.4-1.5-8.5-6-7.5-10.9
		c0.5-2.4,2.4-4.3,4.8-4.7c0.6-0.1,1.2-0.1,1.7,0c0.6,0.1,1.2,0.3,1.8,0.5l0-0.1c-0.9-0.4-1.7-0.7-2.7-0.7c-2.6-0.1-4.9,1.6-5.9,4
		c-0.9,2.3-0.5,5.1,0.7,7.2c2.1,3.7,6.2,5.9,10.3,6.5c2.5,0.4,5.1-0.3,7.6-0.6c2.2-0.3,4.4-0.7,6.6-0.6c0.7,0,1.6,0.5,2.2,0.9
		c1.8,1.2,2.5,3.5,2.3,5.6c-0.2,2.9-2.2,5.7-4.7,7.3c-0.9,0.6-2,1.1-3.1,1.4C104.6,81,103.2,81.1,101.9,81.3z"/>
	<path fill-rule="evenodd" clip-rule="evenodd" fill="#DEC6AD" d="M115.3,88.1c-1.9-1.1-3.7-2.4-5.8-3c-3.1-1-6.5-0.9-9.4,0.9
		c-2,1.2-3.5,3.2-4.5,5.3c-2,4.1-2.4,9.2-1.7,13.7c0.5,3.6,2,6.9,3.4,10.3l5.2,12.3c1.1,3.5,2.1,7.1,1,10.7c-1,3.1-3.6,6.4-7.1,6.8
		c-1.3,0.1-2.5-0.1-3.6-0.8c-0.9-0.5-1.6-1.4-2.3-2.1l-0.1,0.1c0.7,0.8,1.4,1.7,2.3,2.2c2.3,1.5,5.1,1.1,7.2-0.4
		c1.5-1.1,2.7-2.6,3.5-4.3c3-6.2-0.5-13.3-2.7-19.1c-1.3-3.3-3.4-6.4-4.4-9.8c-1.2-3.8-1.8-7.8-1.9-11.9c-0.1-1.8,0.4-3.5,0.9-5.3
		c0.9-2.9,2.5-5.7,5.1-7.4c2.7-1.7,5.9-1.9,9-1C111.5,86,113.4,87.1,115.3,88.1z"/>
	<path fill-rule="evenodd" clip-rule="evenodd" fill="#DEC6AD" d="M113.7,87.1c-2.3-1.2-4.4-2.7-7-3.3c-4-1-8.1,0-11.2,2.7
		c-1.5,1.3-2.7,3-3.6,4.8c-1.5,3-2.6,6.3-2.6,9.8c0.1,4.4,2.7,7.8,5.7,10.7c3.6,3.5,8.1,6.6,10.2,11.3c1.4,2.9,2,6.2,0.9,9.3
		c-1.1,3.2-3.9,6.3-7.4,6.6c-1.3,0.1-2.6-0.2-3.7-0.9c-0.9-0.5-1.6-1.4-2.4-2.1l-0.1,0c0.8,0.8,1.4,1.7,2.3,2.3
		c2.3,1.5,5.2,1.2,7.5-0.2c2-1.3,3.5-3.3,4.3-5.5c1.5-4.1,0.2-8.7-2.1-12.2c-2.4-3.6-5.9-6.2-9-9.3c-2.2-2.2-4.4-4.7-5.2-7.7
		c-0.7-2.8-0.4-5.6,0.5-8.3c1.3-3.8,3.4-7.7,7.1-9.8c2.6-1.4,5.6-1.8,8.5-1.2C109.2,84.6,111.4,86,113.7,87.1z"/>
	<path fill-rule="evenodd" clip-rule="evenodd" fill="#DEC6AD" d="M100.3,81.2c1.7,0,3.3,0.1,4.9-0.5c2.7-0.9,5.4-3.2,5.9-6.1
		c0.2-1.2,0-2.6-0.5-3.8c-1.7-3.6-7.2-3.9-9.8-1.1c-0.9,1-1.1,2-1,3.3c1.8-2.9,6.5-3.7,8.3-1.4c1.7,2.1,0.8,4.3-0.5,5.7
		C106,79.4,102.6,80.5,100.3,81.2z"/>
	<path fill-rule="evenodd" clip-rule="evenodd" fill="#DEC6AD" d="M105.4,81.1c2.1-0.7,4.2-1.4,6.2-2.3c4.8-2.2,7.7-11.7,3.8-15.8
		c-3.7-3.9-10-3.5-8.6-10.5l-0.1,0c-0.6,1.8-1.5,4.1-0.6,6c1.6,3.4,6.4,4.1,8.4,8.2c2.3,4.6-1,11.3-5.9,13.1L105.4,81.1z"/>
	<path fill-rule="evenodd" clip-rule="evenodd" fill="#DEC6AD" d="M100.4,100.2c1.1,0.8,2.2,1.6,3.4,2.1c3.8,1.4,9,0.5,11.2-3.2
		c1.4-2.3,1.6-5.7-0.4-7.7c-1.3-1.2-3.2-2.1-4.9-1.1c-0.6,0.4-0.9,0.8-1.2,1.4l0.1,0.1c0.7-0.8,1.6-1.7,2.8-1.5
		c1.5,0.2,2.8,1.1,3.5,2.5c0.9,1.8,0.5,4.1-0.6,5.8c-1.5,2.3-4.3,3.5-7,3.6c-1.1,0-2.3-0.1-3.3-0.4
		C102.7,101.5,101.6,100.7,100.4,100.2z"/>
	<path fill-rule="evenodd" clip-rule="evenodd" fill="#DEC6AD" d="M113.3,87c-0.8-0.4-1.5-0.8-2.4-1c-2.2-0.5-4.6-0.3-6.7,0.4
		c-2.7,0.9-4.7,2.8-5.9,5.4c-2,3.9-2,8.8-0.3,12.8c0.7,1.7,2,3.2,2.9,4.8c2,3.6,3.8,7.7,2.8,11.8c-0.7,2.8-3.5,5.1-6.4,4.8
		c-0.9-0.1-1.8-0.4-2.6-0.9c-0.6-0.4-1.1-1-1.7-1.5l-0.1,0.1c0.5,0.6,1,1.2,1.6,1.7c1.5,1.1,3.5,1.4,5.3,0.8
		c2.3-0.8,4.3-3.2,4.5-5.7c0.3-2.8-0.1-5.6-1.2-8.1l-3.2-5.8c-0.8-1.5-1.7-3-2.1-4.7c-1.1-4.7,0-10.1,3.6-13.4
		c1.2-1.1,2.9-1.6,4.4-2c1.6-0.3,3.2-0.4,4.8-0.1C111.7,86.4,112.5,86.8,113.3,87z"/>
	<path fill-rule="evenodd" clip-rule="evenodd" fill="#DEC6AD" d="M124.6,53c-1.4-0.1-2.4-1.4-2.3-2.8c0.2-1.4,1.4-2.4,2.8-2.3
		c1.4,0.2,2.4,1.4,2.3,2.8C127.3,52.1,126,53.2,124.6,53z"/>
	<path fill-rule="evenodd" clip-rule="evenodd" fill="#DEC6AD" d="M90.4,54.2c-1.4-0.2-2.4-1.4-2.3-2.8c0.1-1.4,1.4-2.4,2.8-2.3
		c1.4,0.2,2.4,1.4,2.3,2.8C93,53.3,91.8,54.4,90.4,54.2z"/>
	<path fill-rule="evenodd" clip-rule="evenodd" fill="#DEC6AD" d="M110.5,95.6c-1.4-0.1-2.4-1.4-2.3-2.8c0.2-1.4,1.4-2.4,2.8-2.3
		c1.4,0.1,2.4,1.4,2.3,2.8C113.2,94.7,111.9,95.8,110.5,95.6z"/>
	<path fill-rule="evenodd" clip-rule="evenodd" fill="#DEC6AD" d="M106.9,96.8c-3-1.4-0.8-7,0.1-9.2c-1.7,2.5-4.1,4.9-7.4,4.4
		c2.6,1.6,5.1-0.5,6.5-2.6C105.1,92,102.6,95.7,106.9,96.8z"/>
	<path fill-rule="evenodd" clip-rule="evenodd" fill="#DEC6AD" d="M121,106.8c-4.2,5.3-15.5-0.5-19.8-2.8c4.9,3.9,9.4,9.5,7.5,16.1
		c4.1-5,0.2-10.5-3.9-13.8C109.9,109,117.2,114.7,121,106.8z"/>
	<path fill-rule="evenodd" clip-rule="evenodd" fill="#DEC6AD" d="M94,42.4c0.9,3.5,7.6,3.1,10.2,2.9c-3.2,0.8-6.6,2.6-7.1,6.2
		c-1-3.3,2.1-5.1,4.8-5.8C98.9,45.9,94.2,47.1,94,42.4z"/>
</g>
</svg>
